<svg xmlns="http://www.w3.org/2000/svg" width="100%" height="100%" version="1.0" viewBox="0 0 383 475"><path d="M222.6 23.6c-2 1.9-2 1.9.1 5.1 2.2 3.3 2.8 4.9 11.5 30.8 8.3 24.8 19.4 53.2 28.4 72.8 14.9 32.2 15.9 34.8 14.4 35.7-.8.6-3.1 1-5 1-5.1 0-8 2.4-8 6.4 0 3.6 3.4 7.6 6.6 7.6 1 0 2.6.5 3.4 1 1.2.7 1.2 1.2.2 2.2-2.9 2.9-1.4 6.9 5.7 15.6 2.9 3.6 3.6 4 4.4 2.7.8-1.5 1-1.5 2.3.2 2.1 2.7 1.7 4.1-1.3 4.5-3.6.4-4.1 2.6-.6 3 4 .4 4.5 3.8.5 3.8-1.6 0-3.7.9-4.7 2-2.2 2.4-3.1 1.9-3.8-2-.9-4.2-2.9-3.8-7.5 1.6-4.3 4.8-4.7 6.1-7.9 24.4-1.9 10.8-2.7 12-6.8 10.2-3.6-1.6-5.3-4.9-6.5-12.6-1.2-7.9-3.1-12.1-6.1-13.7-2.8-1.5-3.6-.5-5.7 7.2-1.9 6.9-9.6 19.3-11.5 18.6-.7-.2-1.3-1.5-1.5-3-.2-1.4-1.4-3.3-2.8-4.1-1.7-1.2-2.4-2.5-2.4-5 0-3.6-1.9-5.9-5.2-6.1-2.2-.2-4.3 2.5-5.4 7-1.3 5.4-4.9 6-9.6 1.5-1.7-1.7-3.7-3-4.3-3-1.5 0-2.4-3-2.6-8.5-.1-2.8-.5-1.5-1.3 4.2-.6 4.5-1.4 8.4-1.7 8.7-.3.3-2 .9-3.7 1.2l-3.2.6V201l2.3-.1c1.2-.1 10.5-.4 20.7-.8l18.5-.6.3-4.8c.2-3.8-.1-5.2-1.5-6.2-1.5-1.2-1.6-1.7-.5-3.4.6-1.2 1.2-2.8 1.2-3.6 0-.9.7-2.9 1.5-4.5 1.4-2.7 1.4-3.4 0-6.6-.8-2-1.5-4.9-1.5-6.5 0-4.5-3.3-3.8-6.3 1.3-3.7 6.3-8.1 10.2-10.8 9.5-1.5-.4-2.3-.1-2.6 1.2-.2.9-1.4 2.1-2.6 2.6-1.6.7-2.3 2-2.5 4.7-.6 6.6-7.4 7.7-9 1.5-.5-1.9-1.5-3.2-2.4-3.2-.9 0-2-.4-2.4-.8-.7-.6-2.1 1.3-4 5.3-2 4-7.4 2.9-9-1.8-1.4-4.4-2.7-5.4-6-5-2.4.2-3 1-4 4.3-.6 2.2-1.8 4.1-2.7 4.3-2.5.5-3-9.5-2.3-41.6.4-15.8.7-30.1.7-31.9 0-1.7-1.8-7.1-4-11.9-3.5-7.4-4.2-10.1-5.1-19.3-.5-5.8-1-13-1-15.9 0-4.9.2-5.2 2.5-5.2 1.5 0 3.1-1 4.2-2.6 1.6-2.5 1.6-2.8-.3-6.3-1-1.9-3.4-4.5-5.2-5.6-3.3-2-3.7-4.1-1.8-8.7.5-1.1.1-2-1.3-2.7-2.7-1.5-6.1 1.7-6.1 5.9 0 2-.7 3.3-2.2 4.1-1.3.6-3.7 2.5-5.5 4.1-3 2.9-3.3 2.9-6.7 1.7-1.9-.7-3.9-.9-4.3-.5-1.1 1.1 4.6 5.6 8 6.3 4.1.9 4.8 3.8 5 20.8l.2 15-7 .3c-8 .3-11.5-.3-11.5-2.1 0-1.3-5.8-7.4-6.2-6.6-.2.2-1.2 2-2.2 3.9-2.4 4.4-3.3 5-7.3 5-2.7 0-3.7-.7-5.8-4.1-3.1-4.9-5.1-4.8-8.4.4L81.7 94h-7.3c-9 0-10.8 1.3-17.8 12.9l-4.9 8.2-.5 15.4-.5 15.5h-5.8c-5.3 0-6 .3-7.6 2.7-2.8 4.2-2.4 18.2.6 24.8 2.5 5.6 2.9 10.1 1.1 13.5-.7 1.2-4.1 6.1-7.7 10.9-3.5 4.7-8.9 13.7-12 20-5.2 10.4-5.7 12-6.1 19.5-.3 7.2-.1 8.5 2 11.6 2.6 3.9 8.5 7.2 16.9 9.5 6.3 1.7 7.7 3.6 5.4 7.1-2.3 3.5-1.9 7.7 1 10.4s3.1 4.2 1 7.4c-1.4 2.2-1.4 3 .7 10l2.2 7.6-2.3 10.4c-2.7 12.2-2.2 15.6 3.7 20.7C53 340.2 65.1 342.9 92 343c10.2 0 20.3.5 22.5 1 4.4 1 8.5 4.9 8.5 8.1 0 1.3-4.2 6.3-11 13.1l-11 11.1v6.8c0 3.7.5 9 1.2 11.8 1.3 5.6 0 11.9-3.3 15.6-2.9 3.2-4 7.4-4.9 17.5-.5 5.3-2 13.5-3.4 18.4-1.4 4.8-2.6 9.4-2.6 10.2 0 1.2 18.7 1.4 123 1.4h123.1l-.7-3.8c-.3-2-.9-4-1.3-4.4-.3-.4-3.1-.8-6.1-1l-5.5-.3.4-7.8c.4-8.7-.6-10.7-5-10.7-1.7 0-4.2-1.2-6.2-3-2.7-2.3-4.4-3-7.6-3H298v6.4c0 6.1-1.2 9.2-2.3 6.3-.4-1-2.3-1.3-6.8-1.1-6.1.2-9.5-.9-8.3-2.7.3-.5 3.7-.9 7.5-.9h7l-.7-3.8c-.4-2-.7-3.7-.8-3.8 0 0-3.2-.7-7.1-1.5-5.6-1.1-7-1.8-7.3-3.4-.2-1.6-.1-1.7.7-.5.8 1.2 1.3 1.2 2.3.2 2.7-2.7-.9-3.6-16.2-4-13.9-.4-15-.6-15.6-2.5-.3-1.1-.3-9.8.1-19.3s.4-17.7.1-18.3c-.4-.6-2.2.4-4.4 2.4-2 1.9-5 4.5-6.6 5.8l-2.9 2.3 1.7 6.5c1.9 7.7 2.1 21 .4 22.7-.8.8-5.7 1.2-15.4 1.2-7.9 0-14.5.4-14.9.9-.7 1.3 4.3 1.8 8 .9 1.7-.5 4.4-.5 6-.1 1.7.3 5.5.6 8.5.5 3 0 6 .4 6.8 1 1 .8 1.5.9 2 .1.9-1.4 5.3-2 7-.9.7.4 1.9.2 2.8-.5 2-1.6 2.8-.5 1.5 1.9-1 1.9-2.4 2-24.8 2.6-20 .4-40.2 2-32.6 2.5 1.2 0 2.4.5 2.7.9.8 1.4-1.1 3.5-2.7 2.9-2.2-.8-5.4 3-3.9 4.5.9.9 1.5.9 2.4 0 .8-.8 5-1.2 12.2-1.2 11.8 0 15.5.9 11.8 2.9-2.9 1.6-7.4 1.4-10-.5-1.9-1.3-2.3-1.3-2.8-.1-.5 1.5-5 1.7-7.1.4-1.6-1-12.4 4.2-13.1 6.2-.2.6.5 1.1 1.6 1.1 1 0 2.7.9 3.8 2.1 1.8 2 1.8 2.1-.1 3.5-2.5 1.9-20.4 2-21 .1-.2-.6-.5-3.6-.8-6.5-.4-5-.3-5.3 2.2-5.8 5.5-1.1 7.6-2.8 7.9-6.5.4-4.8-2-6.7-9.9-8-7.3-1.2-8.1-1.6-5.5-3.1 2-1.1 15-27.6 23.5-47.8 2.9-6.9 6.9-16.2 8.8-20.7 1.8-4.5 7.7-21.2 12.9-37 5.3-15.9 10.3-29.4 11.2-30.1 1.2-.9 7.5-1.2 23.4-1.2H263l.2 60.2.3 60.3 28.3.3c15.5.1 28.2 0 28.2-.2 0-1.5-8.3-23.3-11.3-30-4.7-10.1-13.9-23.9-18-27-1.8-1.4-4.5-2.7-6.2-3.1-6.3-1.4-8.6-2.8-10.6-6.6-2.6-5.2-4.9-15.2-4.9-22 0-6.5.9-7.6 11.2-13.3 28.6-15.7 50.3-50 58.6-92.6 4.1-20.7 4.7-26.5 4.6-47 0-18.1-.3-21.9-2.6-32.5-2.3-10.9-8.5-29.1-11-32.3-.7-.8-4.2-1.2-10.9-1.2H309v14.7c0 15.7-.8 25.3-2 25.3-2 0-2.5-4.8-2.5-21.6 0-15.6-.2-18.5-1.7-20-.9-1.1-1.8-3.2-2-4.8-.4-4-3.2-5.6-5.5-3.3-1.5 1.5-1.6 2.2-.5 5 1.6 4.1-.4 6-4.8 4.7-4-1.1-4.3-.3-1.6 4.4 3.7 6.4 4.8 29.5 1.6 34.6-1.4 2.2-7.4-1.5-12.9-7.9-2.5-3-5.8-6.7-7.4-8.2-2.9-2.9-4.4-6-12.7-25.9-11.8-28.1-13.4-32-18.6-43.6-3-6.7-5.4-12.7-5.4-13.5 0-.8-.7-2.3-1.5-3.3-.8-1.1-1.5-2.8-1.5-3.7 0-2.1-2.6-4.9-4.5-4.9-.7 0-2.1.7-2.9 1.6zM234.5 46c1.7 3.3 2.1 7 .6 5.4-1.7-1.6-4.2-8.4-3.1-8.4.5 0 1.6 1.3 2.5 3zm6 15.1c.9 2.9-.4 3.8-2.1 1.5-1.8-2.5-1.8-3.6 0-3.6.8 0 1.8.9 2.1 2.1zm-97.6 23c.4 4.6.5 8.8.1 9.2-.4.5-1.8.7-3.1.5-2.3-.3-2.4-.7-2.3-7.8 0-7.5 1.7-13.1 3.5-11.3.5.5 1.3 4.7 1.8 9.4zm103.9-8.9c-.6 1.8-2.8 2.1-2.8.4 0-.9.7-1.6 1.6-1.6.9 0 1.4.5 1.2 1.2zm1.7 5.7c.7 1.2-1.2 2.4-2.5 1.6-1.1-.7-.4-2.5 1-2.5.5 0 1.1.4 1.5.9zm4.9 12.7c.9.3 1.6 1.3 1.6 2.1 0 2.1-4.4 1.2-4.8-1-.4-1.8.6-2.1 3.2-1.1zm7.1 16.4c.3.6-.1 1.3-1.1 1.7-1.8.7-4.8-2.3-3.8-3.9.6-.9 3.9.6 4.9 2.2zm-113.7 11.4c.3 4.1.6 4.7 2.2 4.3 1.1-.3 2.7.1 3.7.9 1.7 1.3 1.7 1.3.1 1.4-2.2 0-2.3 1-.4 3.5 1.2 1.6 1.2 2.2 0 4.1-1.3 1.8-1.2 2.3.1 3.4 1.8 1.5 1 3.1-1.1 2.3-1.4-.5-1.4-.3-.3 1.8 2.5 4.8 2.6 5.4 1.6 7.7-.7 1.6-.7 2.6.1 3.4.8.8.8 1.7.1 3-.6 1-.7 2.8-.3 4 .7 2.5-1.3 4-3.7 2.8-1.7-1-2.1 2.5-3.8 36.5l-.6 13-4.5.3c-3.3.3-4.7-.1-5.7-1.4-2.2-3-1.5-5.4 2.7-9.5 2.2-2.2 4-4.9 4-6.1 0-2.8-15.3-18.3-17-17.3-.8.5-1 2.2-.6 5.1.6 4.9.2 5.3-3 2.3l-2.2-2-.4 3.5c-.2 2 0 3.6.6 3.6.5 0 2.9.9 5.3 2.1 5.1 2.5 5.6 5 2.1 11.9-2.9 5.6-4.2 6-5.4 1.3-.7-3-1.4-3.9-3.5-4.1-3.2-.4-5 1.7-5.8 6.6-1 6.2-4.6 5.1-10.3-2.9-1.9-2.9-3.6-1.8-5.2 3.3-1 3.1-1.4 3.3-5.6 3.3-4.4 0-4.4 0-5.5-4.4-.6-2.5-1.6-4.6-2.3-4.9-2.2-.7-5.8 2.5-6.8 6-.8 2.7-1.5 3.4-4 3.6-1.7.2-4.2-.2-5.7-.7L63 212l.2-16.7.3-16.8 7-.5c6.5-.5 7-.7 7.4-3 .4-3.1 1.7-4 6.2-4 2.9 0 3.8-.5 4.7-2.6.7-1.4 2.5-3 4.1-3.5 3.5-1.3 5.6-5.1 5.2-9.7 0-.6-1.2-1.2-2.6-1.2-3 0-3.1-.9-.5-6s2.5-5.8-1-13.6c-2.6-5.9-3.2-6.5-5.2-5.9-3.4 1.1-8 4-10.8 7l-2.4 2.6 2.7 4.8c5 9 3.4 11.3-7.4 10.9l-7.4-.3-.8-4c-1.3-6-3.1-30.1-2.4-31.9.6-1.5 4.8-1.6 43.4-1.4l42.8.3.3 4.9zm-90.5-2.9c-.3 1 0 1.5.8 1.3 1.1-.2 1.4 1.4 1.3 7.7-.1 7.4-.3 8-2.3 8.3-2.8.4-3.8-2.3-1.7-4.7 1.9-2.1 2.1-4.1.3-4.1-.9 0-1.2-1.5-1.1-4.8.2-5.6 0-5.2 1.9-5.2.9 0 1.2.6.8 1.5zm94.7.5c0 .5.7 1 1.6 1 1.4 0 1.4.3.4 1.5-2.3 2.8-5.5 1.1-4.2-2.3.5-1.4 2.2-1.6 2.2-.2zm128.1 13.8c2.7 4 4.9 7.5 4.9 7.7 0 1.6-5.2 8.5-6 8-.9-.6-9-24.7-9-26.8 0-1.9 5.1 3.7 10.1 11.1zm-12.8-6.6c1.1 2.7 1.4 4.5.7 5.2-1 1-4-4.9-4-7.9 0-2.8 1.5-1.5 3.3 2.7zm33.1 2.4c.9 2.4.7 7.4-.3 7.4-1.9 0-3.3-3-2.6-6 .7-3.3 1.9-3.9 2.9-1.4zm-215 9.8c.7 3-.2 5.6-1.9 5.6s-2.8-3.4-2-6c.9-2.8 3.2-2.5 3.9.4zm-25.8.7c.9 1.6-2 4.1-3.9 3.3-1.7-.6-2.2-2.5-1-3.7 1-1.1 4.1-.8 4.9.4zm217.2 9.9c.6 1.6.7 3 .3 3-.8 0-3.1-4.4-3.1-6.1 0-1.9 1.8.1 2.8 3.1zm-186.4.5c-.4.8-1 1.5-1.5 1.5-.4 0-.6-.7-.3-1.5.4-.8 1-1.5 1.5-1.5.4 0 .6.7.3 1.5zM80 162c0 1-.5 2.2-1 2.5-1.3.8-2.4-2-1.6-4.1.8-2 2.6-.9 2.6 1.6zm-7.2 6.3c.3 2.2-.1 2.7-1.7 2.7-1.7 0-2.1-.6-2.1-3.1 0-2.4.4-3 1.8-2.7 1 .2 1.8 1.4 2 3.1zM281 166c0 .5-.2 1-.4 1-.3 0-.8-.5-1.1-1-.3-.6-.1-1 .4-1 .6 0 1.1.4 1.1 1zm-130 2.7c0 1.5.2 1.6 1 .3 1.5-2.4 2.4-.2 1 2.6-1.2 2.1-1.2 2.7-.1 3.3 1 .7 1 1.4-.3 3.9-1.8 3.4-2 4.3-.8 3.9.4-.1.8.2 1 .8.4 1.4-2 1.7-3.7.6-1.2-.8-1.2-1.2-.2-2.5.8-.9 1-2.3.6-3.3-.9-2-1.4-9.4-.8-10.6.8-1.4 2.3-.7 2.3 1zm58.5 11.3c.7 1.2-1.2 4-2.6 4-1 0-1.2-3.4-.2-4.3.9-1 2.1-.9 2.8.3zm89 46.5v25l-3.6.3c-3.6.3-3.6.3-4.3-4.4-1-7.8-.7-42.3.5-44.5.8-1.5 1.9-1.9 4.2-1.7l3.2.3v25zm25.8-13c.4 6.6.6 15.6.5 20l-.3 8h-18l.3-2.9c.3-1.8 0-2.6-.7-2.2-1.4.9-1.5 10.3-.1 11.1 1.5.9 1.2 2.2-.6 2.9-1.2.4-1.5.2-1-.9.3-.9 0-1.5-.8-1.5-1.8 0-2.6-2.2-2.6-7.6 0-3.4.4-4.4 1.6-4.4 2 0 4.3-2.8 4.4-5.3 0-1.9-1.5-2.3-2.5-.7-.7 1.2-2.5.4-2.5-1.1 0-.5.9-.9 1.9-.9 2.4 0 3.1-1.9 3-7.8 0-3.2-.3-4.1-.8-2.8-.4 1.1-1.5 2-2.5 2.2-2.5.3-3.3-2.6-1.2-4.2 1-.7 1.5-1.8 1.1-2.4-.5-.9-.1-1 1.4-.5 1.8.5 2.1.2 2.1-1.9 0-1.9-.4-2.4-1.5-1.9-.9.3-1.5.2-1.3-.3.2-.5-.1-1-.7-1.1-.5 0-.9.3-.7.8.1.5-.2.9-.8.9-1.3 0-1.3-1.3.2-4.5 1.2-2.8 2.8-3.3 2.8-1 0 2.2 1.7 1.8 3-.5 1-1.9 1.9-2.1 8.3-1.8l7.2.3.8 12zm-39.3 6.4c0 1.2-2 2.5-2.7 1.8-.7-.7.6-2.7 1.8-2.7.5 0 .9.4.9.9zm2.6 2.7c-.4 1.5-.2 3.2.5 4 .9 1.1.8 1.4-.6 1.4s-1.7.6-1.2 3.3c.4 2.7.1 3.5-1.6 4.3-2.3.9-3.6 4.4-1.8 4.4.6 0 1.1-.7 1.1-1.5 0-2.3 2-1.8 2.8.7.4 1.3.7 4.3.7 6.8v4.4l-4.5.8c-2.6.5-4.8.4-5.4-.2-.5-.5-1-6.7-1-13.7-.1-12.2 0-12.8 1.9-12.8 1.5 0 2.2 1 2.9 4.2 1.1 5 3.1 5.9 2.2 1-.4-2.3 0-4.1 1.4-6.5 2.4-3.9 3.5-4.1 2.6-.6zm17.4.1c0 .2-.5 1.4-1.1 2.6l-1.2 2.1-.9-2.3c-1-2.8-.3-4.2 1.7-3.4.8.3 1.5.7 1.5 1zm-34 19.2c1.9 3.6 1.2 7.9-1.5 9.7-2.4 1.6-6.5 1.2-6.5-.7 0-1.8 5-10.9 6-10.9.5 0 1.4.9 2 1.9zM97.8 279.2l-.3 37.3h-26v-18l8.7-.5c9.1-.5 10.4-1 9.5-3.4-.4-1-3.1-1.6-9.1-2.1l-8.6-.7V264h3.3c10.2 0 16.8-2.2 14.2-4.8-.3-.4-4.6-.9-9.3-1.2l-8.7-.5-.3-6.4c-.2-3.5-.1-7 .2-7.7.4-1.1 3.5-1.4 13.6-1.4h13l-.2 37.2zm28.8-36.4c.7.4 1.5 5.2 1.9 11 .5 7.8 1.1 10.4 2.3 11.1 1.4.8 1.7 3.8 2 20.5.5 21.8-.2 30.6-2.3 30.6-2.1 0-2.5-1.1-5.1-14.1-2.4-12.3-4.1-15.9-9.1-19.8-3.1-2.5-4.3-1.9-4.3 2 0 4.7-3.3 3.5-4.2-1.6-.9-5.1-1-39-.1-39.8.9-.9 17.5-.9 18.9.1zm116.9 2.2c2 3.9 1.9 5.7-.4 7-2.4 1.2-8.1 1.3-10 .1-1.5-.9-1.2-1.7 2.7-6.9 3-4 5.7-4.1 7.7-.2zM105 246c0 1.3-.7 2-1.9 2-2.2 0-3.5-1.5-2.6-3 1.2-1.9 4.5-1.1 4.5 1zm-.3 5.6c.3 1 .1 3-.4 4.5-.8 1.9-.8 3.1-.1 3.5.6.4.6 1-.1 1.7-1.4 1.4-1.4 5.7-.1 5.7.6 0 1 1.6 1 3.6 0 2.8-.3 3.5-1.5 3-1.8-.7-2 1-.2 1.8.6.3.3.5-.8.3-1.7-.2-2-.9-1.8-5.5.1-3 .4-5.6.7-5.9.3-.4-.1-1.4-1-2.4-1.5-1.7-1.5-2 .5-4.5 2.5-3.2 3-6.4.6-4.4-1.8 1.5-2-.1-.3-1.8 1.6-1.6 2.7-1.5 3.5.4zm33.7 18.1c.5 3.7.3 5.1-.9 5.9-1.6 1.2-2.1 2.9-.6 2 1.2-.8 2.4 7.5 1.2 8.7-2.2 2.2-3.1-.7-3.1-10.2 0-5.4.3-10.1.7-10.4 1.4-1.5 2.1-.5 2.7 4zM263 268v3H142v-6h121v3zm-116.6 7.7c.9 2.3-1 4.1-2.6 2.4-.9-1-.9-1.2-.1-.7.6.3 1.4.2 1.8-.4.3-.5-.1-1-1-1s-1.3-.5-1-1c.9-1.5 2.2-1.2 2.9.7zm14.3-.6c3.8-.1 6.4.2 6.8.9 1.3 2.1-.9 2.9-5 2-2.5-.6-4.1-.6-4.3 0-.6 1.6-5.2 1.1-5.9-.6-.4-1.2-.7-1.3-1.4-.3-1.1 1.8-2.3.4-1.5-1.6.4-1.2 1.2-1.4 2.8-.9 1.3.4 5.1.7 8.5.5zm29.7-.5c3 1.1 1.2 4.4-2.4 4.4-1.3 0-1.9-3.9-.6-4.4.6-.2 1.2-.5 1.3-.5.1-.1.8.2 1.7.5zm10.3.8c-.3.8-.1 1.7.6 2 .7.2.8.5.2.5-1.8.1-3.8-1.7-3.1-2.8 1-1.6 2.9-1.3 2.3.3zm8.3.1c.6.8.9 1.9.5 2.5-.8 1.3-3.5 1.3-3.5-.1 0-.5.5-.7 1-.4.6.3 1 .1 1-.4 0-.6-.4-1.1-1-1.1-.5 0-1-.5-1-1 0-1.5 1.6-1.2 3 .5zm27.7-.4c.6.6.9 1.8.6 2.5-.6 1.6-3.3 1.9-3.3.3 0-.5.4-.8.9-.4.5.3 1.2.1 1.6-.5.3-.5-.1-1-.9-1-.9 0-1.6-.5-1.6-1 0-1.3 1.3-1.3 2.7.1zm7 .5c.8 2.1-1.3 4.2-2.8 2.7-1.3-1.3-.5-4.3 1.1-4.3.6 0 1.3.7 1.7 1.6zm18.7.1c1.9 1.2-3 3.3-7.5 3.3-4.9 0-6.3-.8-5.1-2.7 1.3-2.1 9.5-2.5 12.6-.6zm-84.1.7c1.2 3.1-2.7 3.6-4.3.6-.9-1.7-.8-2 1.4-2 1.3 0 2.6.6 2.9 1.4zm50.3 0c1.2 1.3 1.1 1.5-.6 2.1-2.6.8-5.7-.2-6.4-2-.7-2 5-2 7-.1zm19.4.2c0 .8-.5 1.2-1 .9-.6-.4-.8-1.1-.5-1.6.9-1.4 1.5-1.1 1.5.7zm-63 .9c0 .9-.9 1.5-2.5 1.5-2.4 0-3.2-1-1.8-2.3 1.2-1.3 4.3-.7 4.3.8zm-79.8 4c-.2 1.1-.4 5-.5 8.7-.1 3.6-.5 6.9-.9 7.3-1.1 1.2-2.9-3.3-2.2-5.9.3-1.3.1-2.7-.5-3-.8-.5-.6-1.8.4-4.2 1.2-3 1.2-3.4-.1-3.4-.8 0-1.2-.5-.9-1.1.4-.5 1.7-.9 2.8-.7 1.6.2 2.1.9 1.9 2.3zm103.3.5c1 1.6-2.1 9.9-10.3 28-4.1 9.1-8.5 19.2-9.8 22.5-7.7 20.1-13.5 32.9-16.2 35.8-1.7 1.8-6.8 7.2-11.3 12l-8.4 8.8-9.6-.7-9.6-.6-5.9 5.6c-3.2 3.1-6.4 5.6-7.1 5.6-1.9 0-2.4-3.5-2.1-14l.3-9.5 21.8-.3 21.7-.2v-56.9l-5.2-.3-5.3-.3-1-15.5-1-15.5H146c-3.1 0-3.5-.3-3.8-2.8l-.3-2.7h33c21.4 0 33.2.4 33.6 1zM112 292.5c1.6 2 1 21.9-.8 23.7-2.4 2.4-3.7-.9-4-10.5-.5-12.1 1.4-17.3 4.8-13.2zm95 8.5c-2.9 5.7-3.6 4.5-.9-1.6 1.2-2.7 2.3-4.4 2.6-3.7.2.6-.5 3-1.7 5.3zm-68.6-.4c1 2.6.7 3.4-1.4 3.4-1.5 0-2-.7-2-2.5 0-2.8 2.4-3.4 3.4-.9zm-33.9 5.9c0 3.3.4 6.6.9 7.3.4.7.5 1.6.1 2-.4.4-1 .1-1.2-.6-.4-1-.8-1-1.9-.1-1.8 1.4-3.2.3-1.7-1.2.9-.9.8-1.7 0-3.2-.9-1.5-.9-2.1.1-2.4 1.5-.6 1.6-3.5.1-5s-.2-3.5 1.9-3.1c1.4.3 1.7 1.5 1.7 6.3zm34 1.1c0 1-.8 2-1.7 2.2-1.3.3-1.8-.3-1.8-2.1s.5-2.5 1.8-2.3c.9.2 1.7 1.1 1.7 2.2zm-16.5 2.5c2.6 5 2 7.2-1.7 6.7-2.4-.3-2.8-.8-3.1-4.1-.3-3.2 1-6.7 2.4-6.7.2 0 1.3 1.8 2.4 4.1zm26 1.5c0 2.5-.4 4.3-.9 4-1.2-.8-2.2-6.2-1.5-8.1 1.1-2.7 2.4-.4 2.4 4.1zm-10.2 2.6c-.5 3.2-2.8 3.5-2.8.4 0-1.7.5-2.6 1.6-2.6 1 0 1.4.7 1.2 2.2zm65.2-.8c0 .8-.4 1.8-1 2.1-.5.3-1-.3-1-1.4 0-1.2.5-2.1 1-2.1.6 0 1 .6 1 1.4zm-5.6 14.5c.3.4.3 1.1 0 1.4-.8.8-3.4-.3-3.4-1.4 0-1.1 2.7-1.2 3.4 0zm-2.4 5.5c0 1.1-1.9 1.5-2.5.6-.3-.5.1-1 .9-1 .9 0 1.6.2 1.6.4zm0 4c0 .3-.4.8-1 1.1-.5.3-1 .1-1-.4 0-.6.5-1.1 1-1.1.6 0 1 .2 1 .4zm-4 4c0 .3-.4.8-1 1.1-.5.3-1 .1-1-.4 0-.6.5-1.1 1-1.1.6 0 1 .2 1 .4zm-1 6.1c0 1.7-1.7 2.8-3 2-.7-.4-.7-1.3 0-2.6 1.2-2.1 3-1.7 3 .6zm-1.5 6.5c.3.5.1 1-.4 1-.6 0-1.1-.5-1.1-1 0-.6.2-1 .4-1 .3 0 .8.4 1.1 1zm-3.7 7.6c-.4 2-3.4 4.1-4.4 3.1-.8-.8 2.4-4.7 3.8-4.7.5 0 .8.7.6 1.6zm-6.8 13.3c0 .6-.4 1.3-1 1.6-.5.3-1-.1-1-.9 0-.9.5-1.6 1-1.6.6 0 1 .4 1 .9zm-7 .9c0 1.3-6.8 24-7.5 25.2-1.2 2-2.6.9-4.6-3.5l-2-4.6 3.2-5.7c4.4-7.8 10.9-14.6 10.9-11.4zm5.5 5.4c-.4 1.3-1.3 3-2.1 3.8-1.2 1.2-1.4 1.1-1.4-1.1 0-2.5 1.6-4.9 3.3-4.9.4 0 .5 1 .2 2.2zM172 389c0 .5-.2 1-.4 1-.3 0-.8-.5-1.1-1-.3-.6-.1-1 .4-1 .6 0 1.1.4 1.1 1zm-5.1 12.6c-.9 2.2-1.3 2.5-1.6 1.2-.5-1.9 1.8-6.9 2.4-5.2.2.6-.2 2.4-.8 4zm79.5 6.3c.7 5.4.1 8.1-2 8.1-1.5 0-1.7-1.2-1.4-7 .3-8.3 2.4-8.9 3.4-1.1zm23.6 11.2c0 1.3-3.3 1.9-10.6 1.9-5.2 0-7.3-.3-6.8-1.1.3-.6 1.5-.9 2.5-.6 1.1.3 1.9.1 1.9-.3s2.9-.7 6.5-.7c3.6.1 6.5.5 6.5.8zm6.6 0c.3.6.1 1.6-.4 2.1-1.3 1.3-4.5-.8-3.6-2.3.7-1.2 3.1-1.1 4 .2zm-71.8 6.8c1.1.6 3.3.5 6-.2 4.8-1.3 6.4-.4 3.9 2.1-1.2 1.1-2 1.3-2.5.6-.4-.5-3.4-1-6.6-1-3.9.1-6.1-.3-6.3-1.2-.5-1.4 3-1.6 5.5-.3zm86.7.4c1.4 1.1 1.5 1.6.5 2.2-.7.4-1.6.2-2-.5-.6-.9-1.3-.9-2.8-.1-1.1.6-2.8.8-3.6.5-.9-.4-2.2-.1-2.9.4-.8.7-1.8.7-2.7.2-.8-.6-3.6-1-6.2-1-5.2 0-6.6-1.6-2-2.3 6.8-1 19.9-.6 21.7.6zm-14.7 7.9c.3 1.4-.5 1.6-4.7 1.5-5.4-.2-7.4-1.3-5.1-2.8 2.5-1.5 9.4-.7 9.8 1.3zm-52.4 8.8c1.4.5 2.6 1.6 2.6 2.5 0 .9-1.2 2-2.6 2.5-3.4 1.3-22 1.3-24.5 0-2.4-1.3-2.5-3.6-.1-4.9 2.2-1.3 21.3-1.4 24.6-.1zm58 0c1.5.5 2.6 1.7 2.6 2.8 0 2.7-4 3.2-25.1 3.2-21 0-24.1-.4-23.7-3.3.2-1.3 1.3-2.4 2.8-2.8 3.9-1.1 40.6-1 43.4.1zm27 .6c.9.8 1.6 1.9 1.6 2.4 0 2.7-9.3 4-14.4 2-3-1.1-3.4-3.4-.8-4.9 2.8-1.7 11.8-1.3 13.6.5z"/><path d="M147.7 130.7c-.4.3-.7 7.5-.7 15.9 0 13.7.2 15.3 1.6 14.7 1.4-.5 1.5-1.5.9-6.2-.5-3.1-.8-10-.7-15.4.2-9.7.1-10.3-1.1-9zM97.2 181.2c.3.7 1.3 1.5 2.2 1.6 1.2.3 1.7-.1 1.4-1-.3-.7-1.3-1.5-2.2-1.6-1.2-.3-1.7.1-1.4 1zM97 188c0 .5.9 1 1.9 1 1.1 0 2.3-.5 2.6-1 .4-.6-.5-1-1.9-1s-2.6.4-2.6 1zM97.5 194.1c-.4.6-.4 1.3-.1 1.6.8.8 3.6-.5 3.6-1.7 0-1.3-2.7-1.3-3.5.1zM78.5 195c-.3.5.1 1 .9 1 .9 0 1.6-.5 1.6-1 0-.6-.4-1-.9-1-.6 0-1.3.4-1.6 1zM114.5 197c-.8 1.3 2 2.4 3.6 1.5.8-.6.7-1-.2-1.6-1.8-1.1-2.6-1.1-3.4.1zM97 200c0 .5.9 1 2 1s2-.5 2-1c0-.6-.9-1-2-1s-2 .4-2 1zM55 134c0 .5.5 1 1 1 .6 0 1-.5 1-1 0-.6-.4-1-1-1-.5 0-1 .4-1 1zM283.2 242.2c-1.8 1.8-1.4 4.3 1 6.4 2.1 1.9 2.1 1.9 1.3-.6-.4-1.4-.7-3.5-.7-4.8 0-2.6 0-2.6-1.6-1zM241 277c0 .5.5 1 1 1 .6 0 1-.5 1-1 0-.6-.4-1-1-1-.5 0-1 .4-1 1zM203.8 58.5c-6.1 5.7-6.8 6.8-6.8 10.2 0 3.1.7 4.4 4 7.4l4 3.7V117l2.8-.1c1.5-.1 2-.3 1-.6-.9-.2-1.9-1.1-2.2-2-.9-2.1.4-13.3 1.5-13.3 1 0 4.6 5.1 5.9 8.4 1.3 3.5 5.2 3.5 7.5-.1 3.1-4.6 6.6-7.4 8-6.3 1.4 1.2 2-.3 3.1-8.6l.6-5.2-5.3-3.4c-8.5-5.4-8.4-5.3-6-15.6 2.3-9.7 2.5-13 1.2-15.1-.7-1-1.7-.5-4.8 2.3-2.2 2-4.3 3.6-4.6 3.6-.3 0-.7-1.9-.9-4.2-.2-2.3-.7-4.3-1.3-4.4-.5-.2-4 2.5-7.7 6.1zm13.4 8.5c-.2.7.2 2.6.8 4.1 1.6 3.8-.3 9.9-3.1 9.9-2.4 0-5.9-5.5-5.9-9.3 0-2 .8-3.2 3.3-4.7 3.4-2.1 5.4-2.1 4.9 0zm5.7 17.2 3.6 2.3-2.9.3c-6.8.8-11-3.4-4.7-4.7.2-.1 2 .9 4 2.1zM88.5 67c.3.5 1 1 1.6 1 .5 0 .9-.5.9-1 0-.6-.7-1-1.6-1-.8 0-1.2.4-.9 1zM107 67c0 .5.7 1 1.5 1s1.5-.5 1.5-1c0-.6-.7-1-1.5-1s-1.5.4-1.5 1zM87 77c0 .5.7 1 1.5 1s1.5-.5 1.5-1c0-.6-.7-1-1.5-1s-1.5.4-1.5 1zM228.7 113.4c-.5 2.1-.6 4.1-.3 4.4 1.2 1.1 1.7-.7 1.4-4.4l-.3-3.9-.8 3.9zM182.5 173.9c-.3.5-.1 1.2.4 1.5 1.3.8 4.2-.4 3.5-1.5-.7-1.2-3.1-1.2-3.9 0zM164.5 176c.4.6 1.1.8 1.6.5 1.4-.9 1.1-1.5-.7-1.5-.8 0-1.2.5-.9 1zM285 207c0 .5.5 1 1.1 1 .5 0 .7-.5.4-1-.3-.6-.8-1-1.1-1-.2 0-.4.4-.4 1zM250 290c0 .5.7 1 1.5 1s1.5-.5 1.5-1c0-.6-.7-1-1.5-1s-1.5.4-1.5 1zM254.5 292c-.3.5-1.2.7-2 .3-2.8-1-6 2.4-15.9 16.9-8 11.9-9.6 14.9-8.8 16.4 1.4 2.7-.3 6.4-2.8 6.4-1.2 0-1.8-.5-1.5-1 .3-.6 1.3-1 2.1-1s1.4-.7 1.4-1.6c0-1.2-.6-1.5-2.5-1-2.7.7-3.2-.3-1.5-3.2 1.3-2.1-1.8-15.3-3.7-16-2-.6-1.7 13.7.3 16.6 2.5 3.6 1.1 7.8-6.1 17.7-4.4 6.2-6.3 9.6-5.9 11 .4 1.4.3 1.6-.4.7-.7-1-1.7-.4-4.2 2.7-3.5 4.6-3.4 6.5.5 8.3 2.3 1 2.9.9 5.4-1.8 1.6-1.6 11.1-14.7 21.1-29.2 14.9-21.6 18-26.6 17-27.7-.8-.9-.8-1.5-.2-1.5.6 0 1.2.5 1.4 1 .2.6 2.6-2 5.4-5.7 2.8-3.8 4.9-7.4 4.6-8.1-.4-1.4-2.8-1.6-3.7-.2zm.5 2.8c0 .4-1.5 1.3-3.2 2-3 1.2-3.1 1.4-1.6 2.6 2 1.5 1.4 2.6-1.3 2.6-4.5 0-2.7-5.4 2.4-6.9 1.7-.5 3.3-1 3.5-1 .1-.1.2.3.2.7zm-11.3 11.9c-.3 1-.5.4-.5-1.2 0-1.7.2-2.4.5-1.8.2.7.2 2.1 0 3zm-2.7 1.7c0 .3-.4.8-1 1.1-.5.3-1 .1-1-.4 0-.6.5-1.1 1-1.1.6 0 1 .2 1 .4zm-4.3 8.1c-.9 1.8-1.3 2-1.5.9-.5-2.1.6-4.6 1.7-4 .5.4.4 1.6-.2 3.1zm-1.9 7.6c-2.4 1.6-3.8.9-3.8-1.6s0-2.5 2.6-.9c1.9 1.3 2.2 1.9 1.2 2.5zM222 337c0 .5-.7 1-1.5 1s-1.5-.5-1.5-1c0-.6.7-1 1.5-1s1.5.4 1.5 1zm-.5 4.9c-.3.6-1.1 1.1-1.7 1.1-.6 0-.6-.6.2-1.5 1.4-1.7 2.6-1.3 1.5.4zm-2.9 4.6c-2.3 1.7-3.6 1.9-3.6.6 0-1.1 1.8-1.9 4-2 1.1 0 1 .3-.4 1.4zm-5.6 1.9c0 .3-.4.8-1 1.1-.5.3-1 .1-1-.4 0-.6.5-1.1 1-1.1.6 0 1 .2 1 .4zm3 2.6c0 .5-.5 1-1.1 1-.5 0-.7-.5-.4-1 .3-.6.8-1 1.1-1 .2 0 .4.4.4 1zm-6 7c0 .6-1.2 1.5-2.6 2-1.4.6-2.2 1.5-1.9 2 .4.6 1.1.8 1.6.5.5-.4.9-.2.9.3 0 1.7-2.8 2.1-4.1.6-1-1.2-.8-1.9 1.2-3.9 2.5-2.5 4.9-3.2 4.9-1.5z"/></svg>