<svg xmlns="http://www.w3.org/2000/svg" width="578.667" height="766.667" version="1.0" viewBox="0 0 434 575"><path d="M250 125.5c-1.1 1.3-1 1.8.4 3.3.9 1 1.6 2.3 1.6 2.9 0 .6.7 2.4 1.5 4 .8 1.5 3.1 8.2 5.1 14.8 5 16.6 16.2 45 25 63.3 4.1 8.4 7.7 16.4 8 17.8.6 2.2.3 2.4-3.2 2.4-6.7.1-9.3 3.9-5.8 8.8 1 1.4 2.5 2.2 4.5 2.2 2.9 0 3.9 1.3 1.9 2.5-2.1 1.3-.9 5.5 2.5 8.9 1.9 2 3.5 4 3.5 4.6 0 .5.5 1 1 1 .6 0 1-.6.8-1.3-.2-.7.1-1.2.7-1.2.5 0 .9.4.7.9-.2.5.2 1.2.9 1.6 1.8 1.2 0 3.2-2.2 2.5-1.4-.5-1.9-.2-1.9 1 0 1 .5 1.5 1.3 1.2 1.9-.7 4.1.8 3.2 2.2-.3.7-1.5.9-2.5.6-1.2-.4-2.3.1-3.3 1.5-1.6 2.3-2.7 1.7-2.7-1.7 0-1.3-.6-2.3-1.2-2.3-2.2.1-7.5 6.4-8.1 9.5-.3 1.6-1.2 6.8-2.1 11.5-.9 4.7-1.6 8.6-1.6 8.7 0 .2-1.1.3-2.3.3-3.6 0-5.4-2.9-6.2-9.9-.6-4.8-1.3-7-3.1-8.8-3.3-3.3-4.8-2.5-5.4 2.8-.3 2.9-1.8 6.4-4.4 10.1-4.3 6.4-5.6 7.1-5.6 3.2 0-1.7-.6-2.8-2-3.1-1.5-.4-2-1.4-2-3.9 0-1.9-.4-3.4-1-3.4-.5 0-1-.8-1.1-1.8 0-1.4-.2-1.4-.9.3-.5 1.2-.9 1.4-.9.6-.2-2.8-4.1 2.1-4.1 5.1 0 2.5-.3 2.8-3.4 2.8-2.5 0-3.5-.5-3.9-2-.3-1.2-1.4-2-2.6-2-2 0-2.1-.6-2.3-10.8l-.2-10.7-.5 11.5c-.3 6.3-1 12.1-1.4 12.7-.5.7-1.9 1.3-3.3 1.3H219v-32.9l15.8-.3 15.7-.3.3-4.3c.2-3.3 0-4.2-1.2-4.2-1.8 0-2.1-1.6-.6-2.5.6-.3 1-1.7 1-3s.5-2.7 1-3c1.5-.9 1.2-5.1-.4-6.4-.7-.6-1.1-2.2-.8-3.6.3-1.8 0-2.5-1.2-2.5-.9 0-2 .8-2.3 1.7-1.3 3.6-7.7 10.3-8.7 9.3-1.5-1.5-2.9-1.2-2.3.4.4 1-.2 1.6-1.6 1.8-1.8.2-2.3 1.1-2.5 4-.3 3.4-.6 3.8-3.1 3.8s-3-.5-3.6-3.7c-.5-2.7-.9-3.3-1.6-2.2-.8 1.2-1 1.2-1.9-.1-.8-1.3-1-1.2-1 .2 0 1-.4 1.8-1 1.8-.5 0-1 .9-1 2.1 0 1.7-.5 2-3.2 1.7-2.9-.3-3.3-.7-3.6-3.4-.2-2.4-.9-3.3-2.7-3.6-3.2-.7-4.3.2-4.7 3.7-.2 1.9-1 3.1-2 3.3-1.7.3-1.8-1.5-1.8-26.6 0-18.4.3-27.1 1.1-27.4.9-.3-2.7-9.7-6.1-15.9-.5-.9-1.2-7.2-1.6-14-.5-9.8-.4-12.2.6-11.2 1.6 1.5 5-1.3 5-4.2 0-1.9-4.6-6.9-7.3-7.8-.9-.3-.9-1 .2-3.1 1-1.9 1.2-2.9.4-3.7-1.8-1.8-4.8-.6-5 2.1 0 1.4-.1 3.1-.2 3.7-.1.7-.7 1.3-1.4 1.3s-2.6 1.3-4.2 3c-2.7 2.8-3 2.9-5.2 1.5-1.3-.9-2.8-1.3-3.4-.9-1.5.9 4 5.3 6.7 5.4 1.8 0 2.2.8 2.8 4.6.3 2.6.6 8.7.6 13.5v8.9h-7c-5.8 0-7-.3-7-1.6 0-2-3.9-5.6-5.1-4.8-.5.3-.7 1-.4 1.5.4.5.2.9-.3.9s-1.2.9-1.5 2c-.4 1.5-1.4 2-4.2 2-3.1 0-3.7-.4-4.6-3-.6-1.7-1.8-3-2.6-3-1.9 0-4.3 2.4-4.3 4.4 0 1.3-1.3 1.6-6.6 1.6-7.4 0-7.8.3-14.1 10.7-3.2 5.3-3.3 5.7-3.3 16.9V217h-5c-4.5 0-5.2.3-6 2.6-1.8 4.6-1.2 15 1 18.6 3.1 5.1 2.6 8.1-2.8 14.9-13.8 17.7-19.1 32.4-14.7 40.9 1.8 3.5 5.5 5.6 12.5 7.1 5.6 1.2 7.1 3 4.6 5.8-2.3 2.6-2 5.7 1 8 2.4 1.9 2.5 2.1.8 4.6-1.5 2.4-1.5 2.8 0 6.8 2 5.3 2 9 .1 15.3-2.8 9.4-1.4 12.9 7.2 18 7.1 4.1 14.7 5.3 33.6 5.4 16.5 0 16.8 0 19.2 2.5 1.4 1.3 2.5 3.2 2.5 4.1 0 1.5-10.1 12.1-15.3 16.2-2 1.5-2.3 9-.5 15.9.8 3.5.8 5 0 6.4-.7 1-1.2 2.6-1.2 3.4 0 .8-.4 1.5-1 1.5-1.8 0-4 7.2-4 13.1 0 3.2-.7 7.8-1.4 10.1-.8 2.4-1.9 6.2-2.4 8.5l-1 4.3h185l-.6-2.3c-.3-1.2-.6-2.8-.6-3.5 0-.8-1.7-1.2-5.1-1.2-4.8 0-5-.1-4.3-2.3.8-2.4.8-2.6.6-8-.2-3.5-.4-3.7-3.6-3.7-2.5 0-3.8-.6-5-2.5-1.2-1.9-2.5-2.5-5.1-2.5H307v5.5c0 3-.4 5.5-1 5.5-.5 0-1-.8-1-1.8 0-1.4-.2-1.4-.9-.3-.8 1.3-1.2 1.3-2.6.1-1-.8-1.9-1-2.3-.4-1.2 1.6-5.2 1.2-5.2-.5 0-1.4-.2-1.4-1.1-.1-.9 1.3-1 1.3-.6 0 .3-1.2 1.8-1.5 6.6-1.3 5.2.1 6.1-.1 5.7-1.4-.3-.8-.6-2.3-.6-3.4 0-1.6-.7-1.9-4-1.9-2.2 0-4-.4-4-1 0-.5-.6-.7-1.4-.4-1.9.7-3.1-1.5-1.6-2.9 1-.9 1.2-.8.6.6-.4 1.3-.2 1.7.6 1.5.7-.3 1.4-1.2 1.6-2.1.3-1.4-1.2-1.7-12-1.9l-12.3-.3-.5-5c-.3-2.8-.1-7.7.3-11 1.2-8.6 1.1-13.5-.4-14.9-.9-.8-1.1-.7-.6.6.5 1.3.1 1.8-1.3 1.8-1.1 0-2 .7-2 1.5 0 .9-1.1 2-2.5 2.5-3.3 1.2-3.9 2.9-2.4 6.6 1 2.7 1.3 5.8 1 14.6l-.1 3.8h-11.4c-7.7 0-11.7.4-12.2 1.2-.5.8-.2.9.9.5.9-.3 1.9-.2 2.2.4.4.5 1.2.6 1.8.2 1.8-1.1 6.6-1.2 7.3-.1.3.5 1.1.5 1.9-.2.9-.8 1.5-.8 2 0 .4.7 1.2.7 2.5 0 1.4-.7 2.3-.6 3.4.5 1.9 2 2.7 1.9 1.9-.2-.5-1.5-.3-1.6.7-.6.9.9 1.7.9 2.6.2.8-.7 1.4-.7 1.9.1.5.8 1.1.8 2.1-.1.8-.6 1.8-.9 2.1-.5.4.4.1 1.1-.7 1.6-.9.6-1 1-.3 1 .6 0 1.5-.5 1.8-1 .5-.8 1.1-.7 2.1.1 1.2 1 1.3.9.7-.7-.6-1.6-.5-1.7.9-.6 1.2.9 1.8 1 2.3.2.5-.8 1.5-.6 3.2.5 1.4 1 2.3 1.2 1.9.7-.3-.6-.2-1.3.4-1.7.5-.3 1 .2 1 1.2 0 1.7-1.5 1.8-23.5 1.8-12.9 0-23.5.3-23.5.7 0 .5-2.7.8-6 .8s-6 .4-6 .9.9.7 2 .4c1.4-.4 2 0 2 1 0 2-1.6 3.1-2.5 1.7-.4-.6-1.2-.5-2.1.5-1.6 1.6-1.1 3.5.9 3.5.9 0 .9-.2 0-.8-.6-.4 3.2-.6 8.5-.6 13.2.3 13.1.2 10.7 1.6-2.9 1.7-6.8 1.7-8.7 0-1.6-1.4-1.8-1.3-1.8.2 0 1.3-.4 1.5-1.9.6-1.4-.7-2.1-.6-2.4.3-.4.9-.6.9-.6-.1-.1-1.5-3.1-1.6-3.1-.1 0 .6-.6.9-1.2.6-.7-.2-2.6.5-4.3 1.7l-3 2.1 3 .5c2.1.4 3.1 1.2 3.3 2.8.3 2.1.1 2.2-8.2 2.2H209v-2.8c0-1.5-.3-3.7-.6-5-.6-1.9-.3-2.2 2.5-2.2 4.2 0 7-4 5.1-7.5-1.3-2.4-3.6-3.3-9.8-3.7-1.8-.1-3.1-.6-2.9-1.1.1-.5.7-.8 1.2-.7.5.1 1.8-1.5 2.8-3.7 4.2-7.9 16.4-35 17.7-38.8.7-2.2 1.6-4.5 2-5 .7-.9 3.6-8.5 8-21 1-2.8 3.7-11.1 6-18.5 2.4-7.4 4.7-14.1 5.3-14.8.7-.9 5.5-1.2 17.8-1.2H281v91h42.7l-3.3-9.4c-6.7-19.3-16.5-34.7-22.9-35.9-7.2-1.4-8.1-2.2-10.4-9.6-1.4-4.5-2.1-8.9-1.9-12.3.3-5.3.3-5.3 5.3-7.8 12-6 20.9-14 28.7-25.5 12.6-19 18.9-38.9 21.9-69.2 1.8-19.1-1.2-40.4-7.8-55.2l-2.8-6.1H315v14.9c0 8.3-.4 15.2-.9 15.6-2.2 1.3-3.6-13.5-2.2-23 1-6.6.9-7.1-1.1-8.6-1.3-1-1.9-2.3-1.5-3.2.3-.9-.1-2.4-1-3.2-1.4-1.5-1.7-1.4-3.4.1-1.6 1.5-1.7 1.8-.3 3.9 2 3.1-.1 5-4 3.5-3.1-1.1-3.3-.2-.7 3.2 1.6 2 2 4.4 2.2 13.6.3 12.1-.5 14.8-3.9 12.4-.9-.7-2.4-1.5-3.2-1.8-.9-.3-3.3-3-5.5-6s-4.4-5.4-5-5.4c-.5 0-2.5-3.9-4.4-8.8-1.9-4.8-4.5-11-5.8-13.9-1.3-2.8-2.3-5.4-2.3-5.7 0-.3-1.3-3.5-3-7.1-1.6-3.6-3-6.8-3-7 0-.3-1.8-4.4-4-9.1-2.2-4.7-4-9.1-4-9.8 0-.7-.4-1.6-.9-2.2-.5-.5-1.1-2-1.3-3.4-.4-3-3.8-3.9-5.8-1.5zm9.6 17c.7 1.9 1.4 4 1.4 4.7-.1 1.6-3.9-5.2-4-7 0-2.2 1.1-1.2 2.6 2.3zm4.4 11.8c0 2-.1 2-1.6.5-.9-.9-1.3-2.1-.9-2.7 1-1.6 2.5-.3 2.5 2.2zm-73.3 16.5.6 7.2h-2.7c-2.4 0-2.6-.3-2.6-4.1 0-5.2 2-12.3 3.2-11.1.5.5 1.2 4.1 1.5 8zm78.3-6.9c0 .5-.7 1.1-1.5 1.5-.9.3-1.5 0-1.5-.9 0-.8.7-1.5 1.5-1.5s1.5.4 1.5.9zm.7 5.8c-.3.3-1.1.2-1.7-.2-.9-.6-.9-1 .1-1.6 1.4-.8 2.7.7 1.6 1.8zm4.3 8.3c1.1.7 1.2 1.2.3 2.1-1.3 1.3-3.3.4-3.3-1.7 0-1.6.9-1.8 3-.4zm3.4 10.6c.9.3 1.6 1.3 1.6 2.1 0 2-3.4 1.2-3.8-1-.4-1.9-.1-2 2.2-1.1zM127.6 199c0 1.9-.3 4.2-.7 5.1-.5.9-.3 2.1.3 2.7.9.9.9 1.5.1 2.3-1.5 1.5-4.3.4-4.3-1.6 0-.9.4-1.4.9-1.1.5.3 1.1-.5 1.3-1.8.4-1.7.1-2.3-.9-1.9-.7.3-1.3 0-1.3-.6s.5-1.1 1-1.1c.7 0 .7-.7 0-2-1.3-2.4-.4-4.2 1.8-3.8 1.2.2 1.7 1.4 1.8 3.8zm66-.1c-.1 3.2.2 3.8 1.5 3.1 1.7-1 4.8.5 3.6 1.7-.5.4-1.3.1-1.8-.7-.8-1.1-.8-.8-.3 1 .4 1.4 1.2 2.9 1.8 3.3.8.6.8 1-.1 1.4-1.7.6-1.7 3 0 3.6.6.2.8.8.4 1.3s-1.2.2-1.7-.6c-.6-.9-1-1-1-.3 0 .6.5 1.5 1 1.8.6.4.7 1.1.4 1.7-.4.6-.1 1.4.7 1.8 1 .7 1 1.1-.1 2.5-1.2 1.4-1.2 1.8 0 2.5s1.2 1.1 0 2.5c-1.1 1.4-1.1 1.8-.1 2.5 1.6.9.6 3-1.4 3-1.6 0-3-1.8-2-2.8.3-.3 1.1 0 1.6.8.9 1.2.9 1.1.4-.5-.5-1.1-.8-3.7-.8-5.8-.1-2-.5-3.7-1.1-3.7-.6 0-.5-.4.3-.9 1-.7 1.1-1.3.1-3.1-.8-1.5-.9-2.5-.2-2.9.5-.3.9-2.2.7-4.1-.4-4.6-.5-4.8-1.4-2.5-.4 1.1-.7 11.1-.6 22.3.1 11.2-.2 20.5-.7 20.8-.4.3-.8 4.8-.8 10v9.4h-3.9c-3.4 0-4-.3-4.6-2.7-.6-2.4-.1-3.2 3-5.8 2.7-2.3 3.4-3.6 2.9-5-.8-2.2-10.9-12.5-12.4-12.5-1.7 0-2.2 2.2-.9 4.6 1.6 3.1.1 4.6-1.8 1.6-1.9-2.7-3.8-3-2.4-.4.7 1.3.6 2.3-.2 3.2-1 1-.9 1.2.5.7.9-.3 2.2 0 2.8.8.6.8 1.7 1.2 2.4.9 2.5-.9 2.8 4.3.6 8.6-2.3 4.4-4 5.2-4 1.7 0-2.8-1.1-4.2-3-4.2-2.8.1-4 1.6-4 5.1 0 3.2-.2 3.5-2.7 3.2-1.9-.2-2.9-1.1-3.7-3.3-1.5-4.2-4.4-4.2-5.2.1-.6 3.2-.9 3.4-4.5 3.4-3.8 0-3.9-.1-3.9-3.3 0-4.2-.5-4.7-3.8-3.8-2.1.6-2.8 1.4-3 4-.3 3.1-.4 3.2-4.8 2.9-2.4-.2-4.4-.6-4.4-1.1V241h5.5c5.2 0 5.5-.1 5.5-2.5 0-2.2.4-2.5 3.9-2.5 3.3 0 4-.4 4.3-2.3.2-1.5 1.1-2.3 2.8-2.5 1.8-.2 2.9-1.2 3.8-3.4 1.3-3.6.9-4.8-1.9-4.8-2.3 0-2.3-.5 0-4.9 1.8-3.4 1.8-3.6-.2-8.5-1.2-2.8-2.5-5.4-3.1-5.8-1.3-.9-8.5 3.2-10.2 5.8-1.2 1.8-1.1 2.4 1 5.2 1.5 2.1 2.2 4.1 1.8 5.7-.4 2.4-.8 2.5-6.8 2.5H131v-3c0-1.7-.4-3-1-3s-1-4.3-1-11v-11h64.7l-.1 3.9zm3.1-2.5c-.4 1-.1 1.3.9.9.7-.3 1.4 0 1.4.6 0 1.7-3.1 2.6-4 1.1-.4-.7-.3-1.9.3-2.6 1.6-1.7 2-1.7 1.4 0zm85.7 3.8c.1.7.7 2.3 1.4 3.5 1.2 2.2 0 4.4-1.3 2.3-1.2-1.9-2.3-6.8-1.7-7.4.7-.8 1.3-.2 1.6 1.6zm9.3 5.3c.8 1.6 2.4 3.9 3.4 5 1.8 2 1.8 2.2-.6 6-1.6 2.8-2.5 3.5-2.9 2.5-2.5-7.1-6.6-20-6.6-20.6 0-1.4 5.2 4.1 6.7 7.1zm16.9 3.2c-.6 1.5-.8 1.5-2.2.2-1.2-1.3-1.3-2.1-.3-4.5l1.1-2.9 1 2.8c.5 1.5.7 3.5.4 4.4zm-22.9 1.5c-.3.8-.6.5-.6-.6-.1-1.1.2-1.7.5-1.3.3.3.4 1.2.1 1.9zM147 213.1c0 1.8-.5 2.9-1.4 2.9-1.8 0-2.8-4-1.4-5.7 1.5-1.9 2.8-.6 2.8 2.8zm-19.6-1.3c.9 1.4-1 3.3-2.7 2.6-1.8-.6-2.1-1.6-1-2.7.9-.9 3.1-.9 3.7.1zm163.5 9.7c-.1 1.5-.4 1.3-1.4-1-1.9-4-1.8-6.7 0-3.5.8 1.4 1.4 3.4 1.4 4.5zm-140.8-.8c-.8 1.5-1 1.5-1.1.2 0-1.7 1-3.2 1.8-2.5.2.3-.1 1.3-.7 2.3zM144 229c0 1.1-.7 2-1.5 2s-1.5-.9-1.5-2 .7-2 1.5-2 1.5.9 1.5 2zm150.8 4.6c-.4.3-1.2-.5-1.8-1.8-1.2-2.2-1.2-2.2.6-.6 1 1 1.5 2 1.2 2.4zM138 232.5c1.4 1.6.6 3.5-1.6 3.5-.8 0-1.4-1-1.4-2.5 0-2.8 1.2-3.2 3-1zm58.7 1c-.4.8-.1 1.7.5 2.1.6.4.8.3.4-.4-.3-.6-.2-1.3.4-1.7.5-.3 1 .1 1 .9s-.4 1.8-1 2.1c-.5.3-1 1.1-1 1.6 0 .6.5.7 1 .4 1.5-.9 1.2 1.3-.6 4.1-1.5 2.2-1.5 2.4 0 1.8.9-.3 1.6-.1 1.6.4 0 2-2.2 2.4-3.8.8-1.1-1-1.2-1.6-.4-1.6.7 0 1.2-.9 1.2-2s-.6-2-1.2-2c-1 0-.9-.3.1-.9 1-.6 1-1.3.3-2.8-.8-1.4-.8-2.3 0-3.1 1.6-1.6 2.1-1.5 1.5.3zm44.3 9.4c0 .5-.7 1.4-1.5 2.1-1.3 1-1.5.9-1.5-.9 0-1.2.6-2.1 1.5-2.1.8 0 1.5.4 1.5.9zm66.5 34.6v19h-6l-.3-18c-.1-9.8 0-18.5.3-19.3.3-.8 1.6-1.2 3.2-1l2.8.3v19zm19.3-3.8.3 15.3h-7.8c-4.7 0-7.3-.4-6.5-.9.8-.5 1.2-1.7 1-2.7-.4-1.7-.6-1.6-1.5.6-.6 1.5-.7 3-.2 3.6.5.6.6 1.4.2 1.8-.4.4-.1 1.1.7 1.7 1.3.8 1.3 1 0 1.9-2.7 1.8-3.4.5-3.5-6.6-.1-3.8.1-6.1.3-5.2.4 2.2 2.2 2.4 2.2.2 0-.8.5-1.2 1-.9.6.3 1-.3 1-1.4 0-2.3-1.6-2.8-2.3-.9-1 2.8-2-.6-2.2-6.8-.1-6.8.6-8.4 3-6.4 1.3 1 1.5.8 1.5-1.5 0-2.4-.2-2.6-1.5-1.5-2.1 1.8-4.4-.2-2.7-2.3.7-.8.9-1.7.5-2-.3-.4.1-.7 1-.7 1 0 1.4.5 1.1 1.5-.4.8-.2 1.5.4 1.5.5 0 1.2-.9 1.5-2.1.5-1.8 1.2-2 6.4-1.7l5.8.3.3 15.2zm-29.4-1.2c-.7 1.6-2.4 2.1-2.4.6 0-.8.7-1.3 2.7-2 .1-.1 0 .6-.3 1.4zm1.4 3.2c-1.5 3-1.3 6.3.6 7.6.7.6.5.7-.5.4-1.8-.6-3.9 1-3.9 3 0 .7.5 1.3 1.1 1.3.6 0 .9-.7.5-1.5-.3-.9 0-1.5.9-1.5s1.2.6.9 1.5c-.4.9 0 1.5.7 1.5.9 0 1 .3.4.8-1.2.9-1.3 3.5-.1 4.3 1.4 1-.4 3.1-2.1 2.5-.9-.4-2.2-.1-3 .5-1 .9-1.7.9-2.4.2-1.4-1.4-2.2-20-1-20.7 2-1.3 3.9.6 3.7 3.6 0 1.8.5 3.3 1.2 3.5 1.4.5 1.4-2.7 0-3.7-.4-.3.2-2.1 1.3-3.9 2.4-3.9 3.7-3.5 1.7.6zm1.2 2.3c0 .5-.5 1-1.1 1-.5 0-.7-.5-.4-1 .3-.6.8-1 1.1-1 .2 0 .4.4.4 1zm-12.6 12.8c1 3.7-.5 6.2-3.9 6.2-3.2 0-3.4-.6-1.1-5.5 2.4-5.1 3.7-5.3 5-.7zm-20.4 3.4c0 2.7-.2 2.8-5 2.8-2.7 0-5-.3-5-.8 0-.4 1.4-2.4 3.1-4.5 3-3.6 3.2-3.7 5-2.1 1.1.9 1.9 3 1.9 4.6zM157 317v28h-20v-14h7c6.3 0 7-.2 7-2 0-1.7-.8-1.9-6.7-2.2l-6.8-.3v-21l6.8-.3c5.9-.3 6.7-.5 6.7-2.2 0-1.8-.7-2-7-2h-7v-12h20v28zm22.8-19.3c.2 6.5.6 8.3 1.7 8.3 1.3 0 1.5 3.1 1.5 19.6 0 18.1-.1 19.5-1.7 19.2-1.3-.2-2.1-2-3-6.8-.6-3.6-1.5-8.3-1.9-10.5-.4-2.6-1.9-5.2-4.1-7.3-3.6-3.6-5.8-3.4-4.9.4.5 1.7.2 2.4-.8 2.4-2.3 0-2.6-2.4-2.6-18.6v-15.5l7.8.3 7.7.3.3 8.2zm-17.3-5.7c0 1.8-1.6 2.2-3.5 1-1.3-.9-1.3-1.1 0-2 1.9-1.2 3.5-.8 3.5 1zm0 4c.4.6 0 2.3-.8 3.9-1.3 2.7-1.3 2.9.2 2.4 1-.3 1.2-.2.5.4-1.8 1.3-2.6 5-1.3 5.9.8.4.9.3.5-.4s-.3-1.2.2-1.2c1.2 0 .9 7.3-.3 7.7-1.8.5-3.8-1.4-2.9-2.8 1.3-2.1 1.4-3.9.2-3.9-.6 0-.4-.7.3-1.7 1.1-1.3 1.1-1.7.2-2-1.4-.5-1.8-3.3-.5-3.3.4 0 1.2-1.1 1.9-2.5.6-1.4.7-2.5.3-2.5-.5 0-1 .6-1.3 1.2-.2.7-.8.9-1.3.5s-.2-1.2.6-1.7c1.9-1.2 2.7-1.2 3.5 0zm24.6 11.2c.5 6.3.5 9-.2 9.4-.5.3-.3 1.4.3 2.4 1 1.5 1 2.2 0 3.2s-1.5 1-2 .1c-.6-.9-.8-8.2-.3-14.6.1-1.9 2-2.4 2.2-.5zm93.9 1.3v2.5h-91v-5h91v2.5zm-87.4 5.6c1 1.7-1.3 3.6-2.7 2.2-1.2-1.2-.4-3.3 1.1-3.3.5 0 1.2.5 1.6 1.1zm5.5-.1c1 .6 1.9.7 1.9.2 0-.4 1.9-.8 4.3-.7 2.8.1 4.2.5 4.2 1.5 0 .7-.6 1.5-1.4 1.8-.8.3-1.1 0-.7-.6.4-.6-.2-.8-1.5-.5-1.2.4-2.5 0-3.1-.8-.8-1.1-.9-1.1-.5.2.4 1.2-.2 1.5-2.8 1.5-3.8-.2-5-.9-4-2.5.8-1.4 1.1-1.4 3.6-.1zm20.6.3c.6.4 1.4.4 1.7-.1.8-1.4 8.9-.9 9.2.6.1.7 0 .8-.3.2-.2-.5-1.2-1-2-1-1.1 0-1.3.3-.5 1.2.8 1-.8 1.3-7.3 1.3-8.3 0-10.2-.5-9.1-2.3.6-1 6.6-1 8.3.1zm15.8.7c0 2.2-2.9 1.8-3.3-.3-.3-1.4.1-1.8 1.5-1.5 1 .2 1.8 1 1.8 1.8zm5.1-.9c1 1.7-1.3 3.6-2.7 2.2-1.2-1.2-.4-3.3 1.1-3.3.5 0 1.2.5 1.6 1.1zm15.9.9c0 1-1.1 1.5-3.7 1.5-2 0-3.4-.4-3.1-.9.3-.4.1-1.1-.6-1.5-.6-.4.8-.7 3.2-.6 2.9.1 4.2.5 4.2 1.5zm5.1-.9c1 1.7-1.3 3.6-2.7 2.2-1.2-1.2-.4-3.3 1.1-3.3.5 0 1.2.5 1.6 1.1zm5 0c1 1.7-1.3 3.6-2.7 2.2-1.2-1.2-.4-3.3 1.1-3.3.5 0 1.2.5 1.6 1.1zm14 .8c0 1.3-1.2 1.6-5.7 1.6-3.2 0-6-.3-6.4-.7-1.5-1.5.6-2.3 6.2-2.4 4.7 0 5.9.3 5.9 1.5zm-117.6 3c0 .3-.4 1.3-1 2.1-.6.9-.5 1.7.2 2.1.7.4.7 1.3-.1 2.7-.7 1.3-.7 2.3-.1 2.7 1.1.7.2 3.5-1.2 3.5-.6 0-.8-.7-.5-1.4.4-1.1.1-1.3-1.1-1-1 .4-1.3.3-.6-.3 1.7-1.3 2.4-5.2.8-4.6-1 .4-1-.2.2-2.7.9-1.7 1.3-3.4 1-3.7-.3-.4-.6-.1-.6.6s-.5.9-1.1.5c-.8-.4-.7-.9.2-1.4 1.3-.9 3.9-.3 3.9.9zm77.5 1.8c-.4 1-1.1 2.9-1.5 4.3-.7 2.4-1.7 4.7-10.1 23.1-2.1 4.7-3.9 8.9-3.9 9.2 0 .4-1.1 3-2.3 5.9-1.3 2.9-3.7 8.8-5.3 13-1.6 4.3-3.4 7.8-4 7.8-.7 0-1.9 1.2-2.9 2.7-.9 1.6-4.2 5.2-7.3 8.1l-5.7 5.4-7.1-.5c-7.7-.6-7.1-.8-13.4 6-4 4.5-5 3.2-5-6.8v-9.1l10.3.2c5.6.1 13 .1 16.5.1l6.2-.1v-42.9l-4.1-.3-4-.3-.3-8.5c-.2-4.7-.4-10-.5-11.9-.1-3.2-.3-3.3-3.1-2.8-2.7.6-3 .4-3-1.8V318h25.6c24 0 25.6.1 24.9 1.7zm-72.3 8c.2 1 .2 5.3 0 9.5-.4 6.8-.7 7.8-2.3 7.8-1.7 0-1.9-.8-1.9-9.5 0-8.6.2-9.5 1.9-9.5 1 0 2.1.8 2.3 1.7zm71.3 4c-1.9 4.6-4.1 7.1-2.6 3 1.4-3.7 3-6.7 3.6-6.7.3 0-.2 1.7-1 3.7zm-52.8 0c1.4-.9.8 12.2-.6 13.6-1.2 1.2-1.2 1.4-1.5-9-.1-3.4.1-5.7.5-5.1.4.6 1.1.8 1.6.5zM162 335c-.7 1.3-.7 2.1 0 2.5.7.4.7 1.2 0 2.5s-.7 2.1 0 2.5c1.3.8 1.3 2.5-.1 2.5-.5 0-.7-.5-.4-1 .3-.6.2-1-.4-1-.5 0-1.1.6-1.4 1.2-.2.7-.8.9-1.3.5s-.2-1.2.6-1.7c1.2-.7 1.2-1.2.2-2.2-1.6-1.6-1.5-3.1.2-2.5 1.6.6 1.2-1.6-.6-4-1-1.2.9-2.3 2.9-1.6.9.4 1 1 .3 2.3zm32.6 6c.1 2.2-.1 4-.6 4-.9 0-1.9-6-1.2-7.8.7-2.1 1.5-.6 1.8 3.8zm-19.3-.5c2.2 4.6 2.2 4.5-1.3 4.5-2.5 0-3-.4-3-2.4 0-2.9.9-5.6 1.9-5.6.4 0 1.5 1.6 2.4 3.5zm60.7 1.9c0 .8-.4 1.8-1 2.1-.5.3-1-.3-1-1.4 0-1.2.5-2.1 1-2.1.6 0 1 .6 1 1.4zm-45.3 1.8c-.3.8-.6.5-.6-.6-.1-1.1.2-1.7.5-1.3.3.3.4 1.2.1 1.9zm41.1 10.3c-.3.3-1.3.2-2.2-.1-1.4-.5-1.5-.9-.4-1.5 1.3-.8 3.6.6 2.6 1.6zm-1.8 2.9c0 1.1-1.9 1.5-2.5.6-.3-.5.1-1 .9-1 .9 0 1.6.2 1.6.4zm0 3c0 .3-.4.8-1 1.1-.5.3-1 .1-1-.4 0-.6.5-1.1 1-1.1.6 0 1 .2 1 .4zm-3.5 3.5c-.3.6-1.1 1.1-1.6 1.1s-.4-.6.3-1.4c1.4-1.6 2.4-1.3 1.3.3zm-.5 4.1c0 1.1-.7 2-1.5 2-1.8 0-1.9-1.2-.3-2.8 1.6-1.6 1.8-1.5 1.8.8zm-1 5c0 .5-.2 1-.4 1-.3 0-.8-.5-1.1-1-.3-.6-.1-1 .4-1 .6 0 1.1.4 1.1 1zm-2.6 6.4c-.5 1.4-4.4 3-4.4 1.8 0-.3.7-1.4 1.6-2.3 1.8-2 3.6-1.6 2.8.5zm-1.4 4c0 .3-.4.8-1 1.1-.5.3-1 .1-1-.4 0-.6.5-1.1 1-1.1.6 0 1 .2 1 .4zm-11.5 14.4c-1.5 4.8-2.8 9.3-3 9.9-.8 2.4-2.5 1.3-4-2.3-1.4-3.4-1.3-3.8.5-6.4 1.1-1.5 2-3.1 2-3.5 0-1.3 6.5-8.1 6.9-7.2.1.4-.9 4.7-2.4 9.5zm8-8.8c-.3.5-1 1-1.6 1-.5 0-.9-.5-.9-1 0-.6.7-1 1.6-1 .8 0 1.2.4.9 1zm-1.8 5c-1.3 3.4-2.7 4-2.7 1 0-1.5 2-3.7 3.7-4 .1 0-.4 1.3-1 3zm-2.7 5c0 .5-.4 1-1 1-.5 0-1-.5-1-1 0-.6.5-1 1-1 .6 0 1 .4 1 1zm52-.6c0 .3-.4.8-1 1.1-.5.3-1 .1-1-.4 0-.6.5-1.1 1-1.1.6 0 1 .2 1 .4zm-56.2 10.2c-.6 2.1-1.3 3.2-1.5 2.3-.4-1.7 1.5-7.5 2.2-6.7.2.2-.1 2.2-.7 4.4zm59 10.5c-2.1 1.3-2.8-.1-2.2-4.9.9-7.6 1.7-8.1 2.5-1.8.6 4.3.5 6.2-.3 6.7zm23.2 3.5c0 1.6-.2 1.6-2.4.8-1.3-.5-1.4-.9-.5-2 1.3-1.6 2.9-.9 2.9 1.2zm-53 4.7c0 .4.8.3 1.8-.2 1.9-1 6.2-1.1 6.2-.1 0 .3-1 1.1-2.1 1.9-1.9 1.1-2.1 1.1-1.6-.3.5-1.2.2-1.4-1.6-.7-3.2 1.1-8 .8-8.4-.6-.3-.8.6-1.2 2.6-1 1.7.1 3.1.6 3.1 1zm65 .3c0 .7-.5 1.6-1.2 2-.7.5-.9.2-.5-.8.4-1.2.1-1.4-1.4-1.1-1 .3-1.9 1-1.9 1.5 0 .6-.7.5-1.6-.3-1.3-1-1.7-1-2.5.2-.6.9-1.1 1-1.6.3-.5-.5-2.4-1-4.3-.9-3.9.1-5.2-.3-4.6-1.3.2-.4 4.7-.7 10-.8 7.2-.1 9.6.2 9.6 1.2zm-12 5.5c0 2.1-.8 2.3-3 .9-.9-.6-1.7-.5-2.1.2-.6.9-1.2.8-2.4-.2-1.5-1.3-1.5-1.5-.1-2 .9-.3 2.9-.5 4.6-.6 2.3-.1 3 .3 3 1.7zm-37.6 7.5c1.2 3.1.4 3.4-10.4 3.4-10 0-11-.2-11-1.8 0-1 .3-2.2.7-2.5.3-.4 5-.7 10.4-.7 7.9 0 9.8.3 10.3 1.6zm43.9.3c.3 1.1.2 2.2-.1 2.5-.3.3-8.8.6-19 .6-16.4 0-18.3-.2-17.8-1.6.3-.9.6-2 .6-2.5s7.7-.9 17.9-.9c16.8 0 17.9.1 18.4 1.9zm19 0c.7 2.8.1 3.1-5.9 3.1-5.4 0-7-1-6-3.5.4-1.1 2.1-1.5 6-1.5 4.5 0 5.5.3 5.9 1.9z"/><path d="M125 197.1c0 .5.5.7 1 .4.6-.3 1-.8 1-1.1 0-.2-.4-.4-1-.4-.5 0-1 .5-1 1.1zm-.5 10.9c-.3.5.1 1 1 1s1.3-.5 1-1c-.3-.6-.8-1-1-1-.2 0-.7.4-1 1zm31.5 35.4c0 .6.9 1.2 2 1.2s2-.3 2-.7c0-.4-.9-.9-2-1.2-1.2-.3-2 0-2 .7zm0 5.1c0 .6.9 1.1 2 1.1s2-.5 2-1.1c0-.6-.9-1.1-2-1.1s-2 .5-2 1.1zm0 5.1c0 .7.8 1 2 .7 1.1-.3 2-.8 2-1.2 0-.4-.9-.7-2-.7s-2 .6-2 1.2zm-14 .4c0 .5.7.7 1.5.4.8-.4 1.5-.8 1.5-1 0-.2-.7-.4-1.5-.4s-1.5.4-1.5 1zm27 1.4c0 .6.9 1.2 2 1.2s2-.3 2-.7c0-.4-.9-.9-2-1.2-1.2-.3-2 0-2 .7zm-13 2c0 .6.9 1.2 2 1.2s2-.3 2-.7c0-.4-.9-.9-2-1.2-1.2-.3-2 0-2 .7zm-13.2 1.3c.6.2 1.8.2 2.5 0 .6-.3.1-.5-1.3-.5-1.4 0-1.9.2-1.2.5zM310 263c0 .5.5 1 1 1 .6 0 1-.5 1-1 0-.6-.4-1-1-1-.5 0-1 .4-1 1zm0 5c0 .5.5 1 1 1 .6 0 1-.5 1-1 0-.6-.4-1-1-1-.5 0-1 .4-1 1zm2.9 1.2c-.1.2-.2 1.8-.4 3.7-.2 1.8-.9 3.7-1.6 4.2-1.8 1.1-.6 2.1 1.5 1.3 1.1-.4 1.6-1.9 1.6-5 0-3.6-.5-5.5-1.1-4.2z"/><path d="M310 273c0 .5.5 1 1 1 .6 0 1-.5 1-1 0-.6-.4-1-1-1-.5 0-1 .4-1 1zm0 21c0 .5.5 1 1 1 .6 0 1-.5 1-1 0-.6-.4-1-1-1-.5 0-1 .4-1 1zm-13.7-5.3c-.7.2-1.3 1.6-1.3 2.9 0 1.4.4 2.2 1 1.9.6-.3 1-.1 1 .4 0 .6.5 1.1 1.1 1.1.6 0 .4-.9-.5-2.2-1.1-1.6-1.3-2.5-.4-3.5 1.1-1.4 1-1.4-.9-.6zM160 313c0 .5.5 1 1.1 1 .5 0 .7-.5.4-1-.3-.6-.8-1-1.1-1-.2 0-.4.4-.4 1zm25.5 2c-.3.5-.1 1 .4 1 .6 0 1.1-.5 1.1-1 0-.6-.2-1-.4-1-.3 0-.8.4-1.1 1zm5.5 0c0 .5.5 1 1 1 .6 0 1-.5 1-1 0-.6-.4-1-1-1-.5 0-1 .4-1 1zm5.5 0c.3.5.8 1 1.1 1 .2 0 .4-.5.4-1 0-.6-.5-1-1.1-1-.5 0-.7.4-.4 1zm15.5 0c0 .5.5 1 1 1 .6 0 1-.5 1-1 0-.6-.4-1-1-1-.5 0-1 .4-1 1zm5 0c0 .5.5 1 1 1 .6 0 1-.5 1-1 0-.6-.4-1-1-1-.5 0-1 .4-1 1zm5 0c0 .5.5 1 1 1 .6 0 1-.5 1-1 0-.6-.4-1-1-1-.5 0-1 .4-1 1zm11 .1c0 .5.5.7 1 .4.6-.3 1-.8 1-1.1 0-.2-.4-.4-1-.4-.5 0-1 .5-1 1.1zm5-.1c0 .5.5 1 1.1 1 .5 0 .7-.5.4-1-.3-.6-.8-1-1.1-1-.2 0-.4.4-.4 1zm16 .1c0 .5.5.7 1 .4.6-.3 1-.8 1-1.1 0-.2-.4-.4-1-.4-.5 0-1 .5-1 1.1zm5-.1c0 .5.5 1 1 1 .6 0 1-.5 1-1 0-.6-.4-1-1-1-.5 0-1 .4-1 1zm5 0c0 .5.5 1 1 1 .6 0 1-.5 1-1 0-.6-.4-1-1-1-.5 0-1 .4-1 1zm5.5 0c-.3.5-.1 1 .4 1 .6 0 1.1-.5 1.1-1 0-.6-.2-1-.4-1-.3 0-.8.4-1.1 1zm5.1.2c.3.5 1 .6 1.5.3 1.3-.9 1.1-1.2-.6-1.2-.8 0-1.2.4-.9.9zM185 336c0 .5.5 1 1 1 .6 0 1-.5 1-1 0-.6-.4-1-1-1-.5 0-1 .4-1 1zm0 5.1c0 .5.5.7 1 .4.6-.3 1-.8 1-1.1 0-.2-.4-.4-1-.4-.5 0-1 .5-1 1.1zm53.5-191.8c-1.7 1.7-4.1 4-5.3 4.9-1.5 1.2-2.2 2.9-2.2 5.3 0 2.8.5 3.7 3 5 2.6 1.3 3 2.1 3 5.3 0 2 .1 8.6.2 14.7l.3 11 8 .1c7.9.1 7.9 0 1-.3-3.8-.2-7.4-.8-7.9-1.3-.4-.4-.5-3.2-.1-6.1l.7-5.3 2.4 2.7c1.3 1.6 2.4 3.7 2.4 4.8 0 1.4.7 1.9 2.5 1.9 1.4 0 2.5-.5 2.5-1.2 0-1.4 5-6.8 6.2-6.8.4 0 .9 1 .9 2.2.1 1.3.7-.9 1.3-4.7l1.2-7-4.8-3c-2.6-1.6-5-3.5-5.2-4.2-.3-.7.3-4 1.4-7.3 1.7-5.2 1.8-12 .3-12-.2 0-1.7 1.3-3.3 3-1.6 1.6-3.1 3-3.3 3-.2 0-.4-1.6-.3-3.6.1-4.8-1.2-5.1-4.9-1.1zm8 8.8c-.4 1.3-.2 2.5.5 2.9 1.6 1-.1 7.4-2.1 7.8-1.7.3-4.9-4.7-4.9-7.6 0-1.3 1.1-2.7 2.8-3.5 3.8-2.1 4.4-2 3.7.4zm4.7 12.9 3.3 2H251c-1.9 0-4.2-.5-5-1-1.3-.9-1.3-1.1 0-2 1.9-1.2 1.4-1.3 5.2 1zM149 157.4c0 .2.7.6 1.5 1 .8.3 1.5.1 1.5-.4 0-.6-.7-1-1.5-1s-1.5.2-1.5.4zm14.5.6c.3.5 1.2.7 2 .3 2.1-.7 1.9-1.3-.6-1.3-1.1 0-1.8.4-1.4 1zm-14.7 3.7c.6.2 1.8.2 2.5 0 .6-.3.1-.5-1.3-.5-1.4 0-1.9.2-1.2.5zm-.8 3.4c0 .5.9.9 2 .9s2-.2 2-.4-.9-.6-2-.9c-1.1-.3-2-.1-2 .4zm0 4c0 .5.5.7 1 .4.6-.3 1-.8 1-1.1 0-.2-.4-.4-1-.4-.5 0-1 .5-1 1.1z"/><path d="M254.8 193c-.2 2.2 0 4 .4 4 .5 0 .8-1.8.8-4s-.2-4-.4-4-.6 1.8-.8 4zm-34.7 31.6c0 1.1.3 1.4.6.6.3-.7.2-1.6-.1-1.9-.3-.4-.6.2-.5 1.3zm.1 9.4c0 1.4.2 1.9.5 1.2.2-.6.2-1.8 0-2.5-.3-.6-.5-.1-.5 1.3zm-13.4.7c.7.3 1.6.2 1.9-.1.4-.3-.2-.6-1.3-.5-1.1 0-1.4.3-.6.6zm27 0c.6.2 1.8.2 2.5 0 .6-.3.1-.5-1.3-.5-1.4 0-1.9.2-1.2.5zm-13.8 3.9c0 .7.8 1 2 .7 1.1-.3 2-.8 2-1.2 0-.4-.9-.7-2-.7s-2 .6-2 1.2zm-14 .6c0 .4.7.8 1.5.8s1.5-.4 1.5-.8c0-.5-.7-.9-1.5-.9s-1.5.4-1.5.9zm91 23.8c0 .5.5 1 1.1 1 .5 0 .7-.5.4-1-.3-.6-.8-1-1.1-1-.2 0-.4.4-.4 1zm-55.2 15.7c.6.2 1.8.2 2.5 0 .6-.3.1-.5-1.3-.5-1.4 0-1.9.2-1.2.5zM271 325c0 .5.4 1 .9 1 .6 0 1.3-.5 1.6-1 .3-.6-.1-1-.9-1-.9 0-1.6.4-1.6 1z"/><path d="M275 326c0 .8-.9 1.1-2.5.8-2.1-.4-3 .2-5.3 3.6-1.6 2.2-5.4 7.8-8.5 12.3-5.6 8-6.7 10-4.7 8.8 1.1-.7 1.3 2.5.2 4-1 1.4-4.6 1.9-3.7.6.3-.6 1.3-1.1 2.1-1.1 1.5 0 1.9-1.2.7-2.3-.3-.4-1.2-.2-2 .4-1 .9-1.3.8-1.3-.4 0-.8.4-1.7.9-1.9.6-.2.4-2.7-.4-6.1-1.5-6.3-2.1-7.5-3.2-6.3-1.1 1.1-.6 11.8.5 12.5 2.5 1.7 1.9 5.2-1.9 10.3-2.1 2.9-4.8 6.8-6.1 8.6-1.3 1.8-3.4 4.7-4.7 6.3-1.3 1.6-2.2 3.1-2 3.3 4.6 3.5 5.1 3.5 7.3.8 1.1-1.5 3-4.1 4.2-5.7 11.6-16.7 19.6-28.3 24.2-35 3-4.4 6.4-8.9 7.4-10.1 1.7-1.9 1.7-2.2.3-3.4-1.2-1-1.5-1-1.5 0zm0 3c-.8.5-1.8.6-2.2.4-.4-.3-.8 0-.8.5 0 .6-.4 1-.9.8-.5-.1-.8.2-.7.8 0 .5.7.8 1.5.7 2-.5.4 1.5-1.7 2-2.7.7-2.8-3.6 0-4.9 2.8-1.2 6.8-1.5 4.8-.3zm-8.5 7.5c-.1 1.4-.5 2.8-.8 3.1-.3.4-.4-.7-.2-2.2.4-3.5.4-3.4.9-3.4.2 0 .3 1.1.1 2.5zm3.5-.1c0 .3-.4.8-1 1.1-.5.3-1 .1-1-.4 0-.6.5-1.1 1-1.1.6 0 1 .2 1 .4zm-6 2.6c0 .5-.5 1-1.1 1-.5 0-.7-.5-.4-1 .3-.6.8-1 1.1-1 .2 0 .4.4.4 1zm-2.2 4.8c-.9.2-1.5.9-1.2 1.7.3.7.1 1.5-.3 1.8-.5.3-.8-.6-.7-2.1.2-3.4.1-3.3 2.2-2.4 1.6.6 1.6.7 0 1zm-4 4.4c-.2.8.5 1.2 1.6 1 2.2-.4 1.3 1.4-1.1 2-1.3.4-1.8-.1-1.9-1.9-.1-1.2.2-2.3.7-2.3.5 0 .8.6.7 1.2zm-7.3 11.8c.3.5-.3 1-1.5 1s-1.8-.5-1.5-1c.3-.6 1-1 1.5-1s1.2.4 1.5 1zm-.5 3.5c-.7.8-1.8 1.5-2.4 1.5-.6 0-.2-.7.8-1.5 2.5-1.9 3.2-1.9 1.6 0zm-1.4 3.4c-.8 1.2-4.6 2.1-4.6 1.1 0-.5.8-1.1 1.8-1.3 2.9-.8 3.3-.7 2.8.2zM243 369c0 .5-.5 1-1.1 1-.5 0-.7-.5-.4-1 .3-.6.8-1 1.1-1 .2 0 .4.4.4 1zm3 1.4c0 .3-.4.8-1 1.1-.5.3-1 .1-1-.4 0-.6.5-1.1 1-1.1.6 0 1 .2 1 .4zm-6 2.6c0 .5-.5 1-1.1 1-.5 0-.7-.5-.4-1 .3-.6.8-1 1.1-1 .2 0 .4.4.4 1zm2.8 2.5c-.3.3-.9-.2-1.2-1.2-.6-1.4-.5-1.5.5-.6.7.7 1 1.5.7 1.8zm-1.8.4c0 .5-.9 1.3-2 1.6-1.1.3-2 1-2 1.5s.7.6 1.7.3c1.1-.4 1.4-.3.9.5-1.2 1.9-3.6 1.4-3.6-.8 0-1.1.7-2 1.6-2 .8 0 1.2-.5.9-1-.3-.6.1-1 .9-1 .9 0 1.6.4 1.6.9z"/></svg>